IKResults
version=1
nRows=5
nColumns=44
inDegrees=yes

Units are S.I. units (second, meters, Newtons, ...)
Angles are in degrees.

endheader
time	ground_spine_rot_x	ground_spine_rot_y	ground_spine_rot_z	ground_spine_tx	ground_spine_ty	ground_spine_tz	clav_prot	clav_elev	scapula_abduction	scapula_elevation	scapula_upward_rot	scapula_winging	plane_elv	shoulder_elv	axial_rot	elbow_flexion	pro_sup	clav_prot_l	clav_elev_l	pitch2	roll2	yaw2	aux7jnt_r3	aux7jnt_r1	aux7jnt_r2	aux6jnt_r3	aux6jnt_r1	aux6jnt_r2	aux5jnt_r3	aux5jnt_r1	aux5jnt_r2	aux4jnt_r3	aux4jnt_r1	aux4jnt_r2	aux3jnt_r3	aux3jnt_r1	aux3jnt_r2	pitch1	roll1	yaw1	aux1jnt_r3	aux1jnt_r1	aux1jnt_r2
     14.11000000	      1.44961517	     -0.65276674	     -2.05032776	     -0.83318051	      1.09115892	      0.90522285	    -22.46096518	     -1.32005037	      8.13566748	    -15.90249423	     11.99798544	     17.18851202	    -66.76386563	     36.88441906	     53.57004743	      0.00000000	     34.32000000	     30.42326055	     -1.16071730	      0.13133538	     -0.10629625	     -0.00564620	      1.40716930	     -0.83437397	     -0.06081859	      1.65548923	     -0.95618189	     -0.07084715	      1.65548923	     -1.31550950	     -0.07084715	      1.24161692	     -1.31550950	     -0.07084715	      0.82774462	     -1.19370507	     -0.03040930	     -0.21679467	      0.03505891	     -0.02163154	     -6.90630591	      1.00436376	     -0.13757322
     14.12000000	      1.42372748	     -0.67956523	     -2.08044720	     -0.83339248	      1.09109804	      0.90538661	    -22.44202745	     -1.31927418	      8.16708603	    -15.90013571	     11.99901186	     17.17261082	    -66.62212669	     36.90467612	     53.12440604	      0.00000000	     34.32000000	     30.42326055	     -1.16071730	      0.13157530	     -0.10318551	     -0.00575988	      1.40973994	     -0.80995617	     -0.06204314	      1.65851352	     -0.92819941	     -0.07227361	      1.65851352	     -1.27701136	     -0.07227361	      1.24388514	     -1.27701136	     -0.07227361	      0.82925676	     -1.15877151	     -0.03102157	     -0.21755050	      0.03243262	     -0.02189231	     -6.93038387	      0.92912611	     -0.13923167
     14.13000000	      1.42147808	     -0.70139961	     -2.08446511	     -0.83341161	      1.09108823	      0.90544642	    -22.37792828	     -1.35679335	      8.28274313	    -15.92802799	     11.99796525	     17.12876234	    -66.85302427	     36.92318318	     52.98608523	      0.00000000	     34.32000000	     30.42326055	     -1.16071730	      0.13042645	     -0.10383536	     -0.00526128	      1.39743079	     -0.81505717	     -0.05667240	      1.64403220	     -0.93404509	     -0.06601728	      1.64403220	     -1.28505382	     -0.06601728	      1.23302415	     -1.28505382	     -0.06601728	      0.82201610	     -1.16606931	     -0.02833620	     -0.21687142	      0.03387299	     -0.02235544	     -6.90875103	      0.97038973	     -0.14217713
     14.14000000	      1.46589191	     -0.68808362	     -2.09362887	     -0.83345266	      1.09106607	      0.90520884	    -22.42400909	     -1.27791438	      8.18041809	    -15.85928216	     11.99802149	     17.14826923	    -66.12481309	     36.88756099	     52.28440602	      0.00000000	     34.32000000	     30.42326055	     -1.16071730	      0.12896966	     -0.11040737	     -0.00464531	      1.38182224	     -0.86664432	     -0.05003747	      1.62566924	     -0.99316331	     -0.05828830	      1.62566924	     -1.36638832	     -0.05828830	      1.21925193	     -1.36638832	     -0.05828830	      0.81283462	     -1.23987296	     -0.02501874	     -0.21578235	      0.04171444	     -0.02232435	     -6.87405701	      1.19503073	     -0.14197938
     14.15000000	      1.41823033	     -0.69391017	     -2.11323774	     -0.83355935	      1.09104975	      0.90550849	    -22.40107540	     -1.36851776	      8.24990754	    -15.94152772	     11.99826240	     17.15056454	    -66.68632662	     36.92212498	     50.96290311	      0.00000000	     34.32000000	     30.42326055	     -1.16071730	      0.12926071	     -0.10295130	     -0.00445381	      1.38494061	     -0.80811774	     -0.04797468	      1.62933790	     -0.92609259	     -0.05588536	      1.62933790	     -1.27411281	     -0.05588536	      1.22200342	     -1.27411281	     -0.05588536	      0.81466895	     -1.15614134	     -0.02398734	     -0.21642864	      0.03346952	     -0.02288682	     -6.89464554	      0.95883104	     -0.14555657
